<?xml version="1.0" encoding="utf-8"?>
<!-- Generator: Adobe Illustrator 16.0.0, SVG Export Plug-In . SVG Version: 6.00 Build 0)  -->
<!DOCTYPE svg PUBLIC "-//W3C//DTD SVG 1.1//EN" "http://www.w3.org/Graphics/SVG/1.1/DTD/svg11.dtd">
<svg version="1.1" id="Layer_1" xmlns="http://www.w3.org/2000/svg" xmlns:xlink="http://www.w3.org/1999/xlink" x="0px" y="0px"
	 width="60px" height="60px" viewBox="0 0 60 60" enable-background="new 0 0 60 60" xml:space="preserve">
<g display="none">
	<path display="inline" fill="#CCCCCC" d="M22.986,16.843c0,1.264-1.025,2.29-2.289,2.29c-1.268,0-2.294-1.025-2.294-2.29
		c0-1.267,1.026-2.293,2.294-2.293C21.961,14.55,22.986,15.577,22.986,16.843L22.986,16.843z M22.986,16.843"/>
	<path display="inline" fill="#CCCCCC" d="M48.88,6.712h-37c-1.428,0-2.584,1.168-2.584,2.602v41.324
		c0,1.436,1.157,2.603,2.584,2.603h37c1.423,0,2.58-1.167,2.58-2.603V9.314C51.46,7.88,50.303,6.712,48.88,6.712L48.88,6.712z
		 M50.008,50.638c0,0.633-0.507,1.15-1.128,1.15h-37c-0.625,0-1.129-0.518-1.129-1.15V9.314c0-0.632,0.503-1.146,1.129-1.146h37
		c0.621,0,1.128,0.514,1.128,1.146V50.638z M50.008,50.638"/>
	<path display="inline" fill="#CCCCCC" d="M45.255,11.076H15.5c-1.016,0-1.843,0.83-1.843,1.849v23.927
		c0,1.018,0.827,1.848,1.843,1.848h29.754c1.019,0,1.846-0.83,1.846-1.848V12.925C47.101,11.906,46.273,11.076,45.255,11.076
		L45.255,11.076z M15.5,12.526h29.754c0.217,0,0.391,0.182,0.391,0.398v8.484L39.331,16.9c-0.289-0.21-0.686-0.174-0.938,0.078
		l-8.107,8.108l-5.901-3.937c-0.245-0.164-0.564-0.164-0.809,0l-8.467,5.648V12.925C15.109,12.708,15.287,12.526,15.5,12.526
		L15.5,12.526z M45.255,37.249H15.5c-0.213,0-0.392-0.183-0.392-0.397v-8.308l8.872-5.913l5.996,3.997
		c0.288,0.191,0.671,0.153,0.917-0.093l8.093-8.093l6.66,4.757v13.653C45.646,37.066,45.472,37.249,45.255,37.249L45.255,37.249z
		 M45.255,37.249"/>
</g>
<g>
	<g>
		<defs>
			<rect id="SVGID_1_" x="0.75" y="1.291" width="58.5" height="57.418"/>
		</defs>
		<clipPath id="SVGID_2_">
			<use xlink:href="#SVGID_1_"  overflow="visible"/>
		</clipPath>
		<path clip-path="url(#SVGID_2_)" fill="#CCCCCC" d="M14.305,25.126c0,1.115-0.904,2.014-2.015,2.014
			c-1.116,0-2.016-0.899-2.016-2.014c0-1.11,0.899-2.015,2.016-2.015C13.401,23.111,14.305,24.016,14.305,25.126L14.305,25.126z
			 M14.305,25.126"/>
		<path clip-path="url(#SVGID_2_)" fill="#CCCCCC" d="M58.483,39.069L52.479,3.932c-0.133-0.768-0.552-1.434-1.182-1.883
			c-0.635-0.446-1.406-0.621-2.169-0.489L17.381,6.986c-1.564,0.269-2.626,1.758-2.371,3.323l0.692,4.281L3.162,16.737
			c-1.58,0.269-2.641,1.772-2.372,3.345l6.007,35.135c0.243,1.41,1.473,2.41,2.858,2.41c0.162,0,0.326-0.018,0.488-0.044
			l31.735-5.426c1.577-0.27,2.64-1.772,2.371-3.347l-0.719-4.204l12.595-2.196C57.693,42.137,58.756,40.639,58.483,39.069
			L58.483,39.069z M41.573,50.38L9.84,55.803c-0.592,0.102-1.161-0.3-1.261-0.896L2.57,19.779c-0.101-0.596,0.301-1.163,0.895-1.265
			l31.734-5.422c0.062-0.014,0.123-0.018,0.185-0.018c0.225,0,0.446,0.071,0.631,0.204c0.238,0.168,0.396,0.418,0.449,0.705v0.004
			l6.005,35.129C42.569,49.71,42.169,50.279,41.573,50.38L41.573,50.38z M21.596,12.726c-0.018-0.141,0.075-0.268,0.211-0.295
			l24.928-4.258c0.092-0.014,0.154,0.012,0.194,0.043c0.039,0.027,0.092,0.08,0.11,0.172l1.207,7.071l-6.048-2.927
			c-0.388-0.189-0.854-0.074-1.115,0.274l-2.434,3.271l-0.409-2.395c-0.129-0.767-0.552-1.432-1.182-1.882
			c-0.635-0.445-1.397-0.621-2.165-0.489l-13.211,2.258c0-0.036,0.014-0.067,0.01-0.102L21.596,12.726z M39.061,18.457
			c0.066-0.049,0.142-0.088,0.194-0.16l2.834-3.817l5.995,2.905c0.167,0.08,0.339,0.088,0.503,0.065l1.838,10.748
			c0.026,0.141-0.065,0.273-0.207,0.303l-9.134,1.804L39.061,18.457z M55.816,40.634l-12.59,2.191l-1.838-10.738l9.177-1.811
			c1.111-0.222,1.83-1.267,1.641-2.382l-3.39-19.81c-0.094-0.547-0.394-1.023-0.843-1.34c-0.449-0.322-0.996-0.446-1.543-0.353
			l-24.927,4.263c-1.098,0.189-1.843,1.198-1.702,2.305l0.102,0.746c0.005,0.057,0.035,0.106,0.053,0.16l-2.473,0.423l-0.693-4.264
			c-0.097-0.59,0.304-1.155,0.896-1.255L49.438,3.34c0.282-0.048,0.578,0.014,0.815,0.185c0.238,0.168,0.396,0.42,0.445,0.71
			l6.009,35.137C56.808,39.965,56.407,40.529,55.816,40.634L55.816,40.634z M55.816,40.634"/>
	</g>
	<path fill="#CCCCCC" d="M32.192,16.142L7.313,20.396c-1.124,0.194-1.882,1.265-1.688,2.389l3.381,19.784
		c0.172,1.005,1.05,1.72,2.037,1.72c0.115,0,0.233-0.01,0.349-0.031l24.883-4.255c1.124-0.188,1.883-1.26,1.688-2.384L34.582,17.83
		C34.388,16.711,33.316,15.952,32.192,16.142L32.192,16.142z M7.618,22.177l24.879-4.254c0.014-0.004,0.03-0.004,0.044-0.004
		c0.128,0,0.238,0.092,0.261,0.221l1.207,7.07l-6.042-2.926c-0.402-0.194-0.877-0.071-1.134,0.29l-5.202,7.349L16.627,27.7
		c-0.331-0.149-0.722-0.084-0.988,0.168l-6.299,5.956L7.402,22.477C7.379,22.335,7.476,22.199,7.618,22.177L7.618,22.177z
		 M35.971,38.227l-24.884,4.251c-0.137,0.029-0.278-0.07-0.299-0.212l-1.107-6.473c0.154-0.034,0.305-0.092,0.431-0.211l6.33-5.99
		l5.132,2.283c0.387,0.172,0.855,0.05,1.102-0.304l5.188-7.331l5.986,2.896c0.162,0.08,0.334,0.087,0.503,0.066l1.829,10.721
		C36.208,38.064,36.111,38.201,35.971,38.227L35.971,38.227z M35.971,38.227"/>
</g>
</svg>
